<svg width="330" height="454" viewBox="0 0 330 454" fill="none" xmlns="http://www.w3.org/2000/svg">
<path fill-rule="evenodd" clip-rule="evenodd" d="M130.511 73.9229C159.969 90.4712 189.408 107.004 218.884 123.566C248.323 140.107 277.845 156.705 307.44 173.313L307.587 254.299L307.733 335.444C278.168 318.806 248.61 302.159 219.085 285.536C189.55 268.908 160.025 252.293 130.505 235.685C130.495 208.725 130.496 181.742 130.497 154.804C130.497 127.867 130.499 100.93 130.511 73.9236" fill="#4630EB"/>
<path fill-rule="evenodd" clip-rule="evenodd" d="M96.3331 103.213C125.818 119.753 155.274 136.307 184.722 152.851C214.2 169.41 243.694 185.951 273.225 202.55C273.266 229.538 273.342 256.595 273.394 283.608C273.447 310.642 273.5 337.677 273.542 364.734C243.972 348.089 214.409 331.411 184.855 314.77C155.315 298.136 125.807 281.508 96.3056 264.908C96.3028 237.906 96.3221 210.972 96.3194 184.015C96.3159 157.081 96.3359 130.124 96.3331 103.213Z" fill="#15181A"/>
<path fill-rule="evenodd" clip-rule="evenodd" d="M96.6746 103.592C120.802 117.08 144.908 130.577 169.008 144.069L184.466 152.724C197.414 159.972 210.365 167.218 223.322 174.466C239.832 183.702 256.352 192.944 272.882 202.202C272.907 218.25 272.944 234.323 272.98 250.396C273.005 261.212 273.03 272.028 273.051 282.836L273.052 283.557C273.104 310.016 273.156 336.475 273.197 362.956C257.672 354.244 242.149 345.529 226.628 336.81C212.786 329.037 198.947 321.264 185.109 313.499C175.289 307.989 165.469 302.478 155.649 296.965C135.975 285.922 116.309 274.885 96.647 263.86C96.6457 250.476 96.6498 237.108 96.6539 223.747C96.6588 210.292 96.6622 196.844 96.6608 183.389C96.6595 169.963 96.6636 156.531 96.6677 143.102C96.6718 129.927 96.6753 116.754 96.6746 103.592ZM169.517 143.163C145.16 129.525 120.794 115.884 96.4089 102.252L95.6339 101.818V102.706C95.6353 116.162 95.6319 129.631 95.627 143.102C95.6229 156.531 95.6188 169.964 95.6202 183.39C95.6222 196.844 95.6181 210.293 95.6133 223.748C95.6098 237.21 95.6057 250.68 95.6071 264.165V264.47L95.8721 264.619C115.63 275.699 135.386 286.784 155.139 297.873C164.956 303.383 174.776 308.895 184.599 314.407C198.436 322.171 212.276 329.944 226.117 337.717C241.897 346.58 257.679 355.444 273.463 364.298L274.239 364.734L274.238 363.845C274.196 337.067 274.144 310.312 274.092 283.557L274.09 282.836C274.069 272.028 274.044 261.212 274.019 250.396C273.982 234.221 273.945 218.047 273.92 201.897L273.92 201.591L273.655 201.443C257.036 192.135 240.429 182.844 223.831 173.559C210.874 166.31 197.923 159.065 184.974 151.816L169.517 143.163Z" fill="white"/>
<path fill-rule="evenodd" clip-rule="evenodd" d="M240.256 245.481C229.237 228.222 221.927 201.867 221.906 182.666C221.885 163.465 225.854 153.705 232.355 146.279C238.856 138.853 247.937 136.629 258.134 141.024C258.141 149.225 258.16 157.426 258.191 165.627C246.443 161.551 237.442 175.372 237.472 191.422C237.504 207.471 241.658 218.172 247.991 228.539C245.398 234.191 242.804 239.842 240.255 245.481" fill="#15181A"/>
<path fill-rule="evenodd" clip-rule="evenodd" d="M240.179 244.699C234.967 236.409 230.611 226.126 227.497 215.589C224.171 204.33 222.266 192.793 222.255 183.1C222.244 173.576 223.232 166.4 225.037 160.688C226.832 155.008 229.438 150.779 232.674 147.125C235.927 143.451 239.83 141.084 244.193 140.205C248.346 139.367 252.928 139.875 257.781 141.883C257.787 145.869 257.792 149.847 257.801 153.825C257.809 157.68 257.82 161.533 257.835 165.383C256.653 165.035 255.427 164.857 254.194 164.855C250.77 164.862 247.679 166.315 245.087 168.796C242.531 171.245 240.462 174.696 239.046 178.743C237.673 182.67 236.914 187.161 236.923 191.837C236.939 199.903 238.004 206.626 239.869 212.638C241.707 218.561 244.32 223.786 247.473 228.917L247.43 229.008C244.97 234.31 242.509 239.611 240.179 244.7V244.699ZM226.492 215.877C229.734 226.851 234.319 237.559 239.815 246.069L240.335 246.876L240.734 246.004C243.327 240.331 245.855 234.885 248.383 229.439L248.657 228.847L248.512 228.612C245.336 223.472 242.707 218.252 240.87 212.334C239.033 206.415 237.985 199.79 237.969 191.837C237.961 187.276 238.699 182.901 240.035 179.08C241.397 175.188 243.376 171.878 245.813 169.544C248.216 167.245 251.062 165.898 254.194 165.892C255.479 165.889 256.815 166.11 258.191 166.583L258.888 166.822L258.885 166.091C258.868 162.001 258.856 157.914 258.847 153.824C258.839 149.733 258.833 145.638 258.827 141.539V141.195L258.511 141.061C253.34 138.857 248.437 138.29 243.984 139.188C239.391 140.114 235.293 142.595 231.886 146.442C228.558 150.2 225.879 154.547 224.035 160.38C222.202 166.183 221.197 173.46 221.208 183.1C221.219 192.892 223.139 204.531 226.492 215.877ZM270.184 422.149L271.189 403.517L272.193 384.843V384.776C272.191 383.513 272.417 382.506 272.805 381.815C272.975 381.512 273.167 381.288 273.376 381.149C273.541 381.035 273.737 380.973 273.937 380.972C274.201 380.972 274.511 381.066 274.862 381.263C275.893 381.844 276.862 383.091 277.59 384.642C278.349 386.257 278.822 388.157 278.825 389.964V390.03C279.178 396.661 279.531 403.274 279.884 409.879C280.236 416.482 280.59 423.077 280.944 429.672C280.958 431.856 281.528 434.133 282.433 436.058C283.389 438.087 284.742 439.77 286.257 440.623C286.999 441.041 287.736 441.238 288.443 441.237C289.155 441.239 289.85 441.027 290.439 440.628C290.992 440.258 291.463 439.733 291.833 439.074C292.42 438.028 292.765 436.604 292.772 434.902L293.263 426.083C293.791 416.601 294.32 407.121 294.848 397.597V397.52C294.838 396.255 295.061 395.246 295.448 394.556C295.617 394.255 295.809 394.031 296.017 393.892C296.18 393.781 296.373 393.72 296.57 393.718C296.841 393.716 297.158 393.811 297.515 394.012C298.553 394.597 299.521 395.844 300.246 397.394C301.006 399.016 301.476 400.926 301.478 402.752V402.819L302.929 429.87L303.604 442.465H303.605C303.631 444.646 304.2 446.929 305.107 448.859C306.051 450.869 307.385 452.539 308.894 453.388C309.634 453.805 310.37 454.001 311.076 454C311.788 454.002 312.483 453.789 313.072 453.389C313.627 453.017 314.098 452.491 314.468 451.832C315.065 450.768 315.411 449.314 315.408 447.581H312.811C312.813 448.847 312.587 449.861 312.197 450.557C311.692 451.458 311.067 451.619 310.168 451.112C309.143 450.536 308.186 449.291 307.46 447.747C306.694 446.117 306.216 444.2 306.201 442.389V442.332L305.526 429.737C305.043 420.727 304.559 411.718 304.076 402.686C304.061 400.492 303.5 398.216 302.599 396.292C301.65 394.267 300.306 392.592 298.788 391.737C298.032 391.31 297.281 391.111 296.561 391.116C295.851 391.118 295.158 391.332 294.57 391.729C294.018 392.1 293.546 392.623 293.177 393.28C292.589 394.328 292.247 395.754 292.249 397.46C291.722 406.982 291.194 416.461 290.666 425.94L290.175 434.76V434.832C290.183 440.541 286.718 439.048 284.786 434.946C284.021 433.32 283.543 431.412 283.54 429.606V429.54L282.481 409.746L281.421 389.897C281.407 387.713 280.843 385.445 279.943 383.53C278.995 381.513 277.649 379.84 276.134 378.987C275.39 378.568 274.649 378.369 273.937 378.37C273.226 378.367 272.53 378.578 271.939 378.976C271.382 379.347 270.907 379.875 270.534 380.539C269.947 381.585 269.602 383.007 269.596 384.71L268.591 403.384C268.298 408.83 268.005 414.27 267.712 419.706L267.587 422.022V422.093C267.629 427.711 264.194 426.497 262.191 422.223C261.43 420.596 260.955 418.686 260.953 416.883V416.817C260.621 410.604 260.284 404.387 259.946 398.163C259.568 391.177 259.189 384.184 258.816 377.185C258.802 375.003 258.243 372.733 257.346 370.815C256.403 368.8 255.066 367.131 253.555 366.28C252.8 365.855 252.049 365.655 251.331 365.661C250.625 365.662 249.936 365.874 249.35 366.269C248.8 366.637 248.332 367.158 247.964 367.813C247.377 368.858 247.035 370.287 247.039 372.002C246.544 380.841 246.05 389.654 245.556 398.47L244.95 409.26V409.332C244.952 410.589 244.726 411.596 244.337 412.289C243.824 413.202 243.185 413.353 242.279 412.842C241.243 412.259 240.278 411.01 239.554 409.466C238.79 407.841 238.318 405.932 238.317 404.128V404.056C237.945 397.31 237.589 390.736 237.242 384.255C236.887 377.652 236.537 371.041 236.186 364.412C236.172 362.232 235.608 359.961 234.707 358.042C233.758 356.019 232.413 354.344 230.901 353.493C230.16 353.076 229.422 352.878 228.713 352.878C228.002 352.876 227.307 353.088 226.719 353.487C226.166 353.857 225.694 354.381 225.324 355.042C224.737 356.089 224.392 357.519 224.385 359.23C223.712 371.661 223.038 384.092 222.363 396.523V396.59C222.364 397.859 222.137 398.873 221.745 399.57C221.575 399.874 221.381 400.1 221.171 400.24C221.004 400.352 220.816 400.412 220.615 400.412C220.352 400.412 220.041 400.319 219.69 400.12L218.417 402.395C219.162 402.816 219.904 403.014 220.615 403.014C221.329 403.016 222.026 402.804 222.618 402.404C223.172 402.032 223.645 401.507 224.017 400.845C224.607 399.795 224.953 398.365 224.96 396.656L225.971 378.028L226.982 359.362V359.296C226.98 358.024 227.207 357.01 227.596 356.317C227.766 356.014 227.958 355.789 228.165 355.65C228.327 355.54 228.518 355.481 228.713 355.481C228.974 355.481 229.281 355.573 229.629 355.769C230.661 356.35 231.628 357.597 232.354 359.144C233.115 360.762 233.586 362.667 233.588 364.479V364.545C233.939 371.174 234.291 377.784 234.645 384.387C235.006 391.114 235.364 397.736 235.719 404.198H235.719C235.734 406.371 236.298 408.643 237.201 410.568C238.148 412.586 239.49 414.263 241.006 415.118C241.751 415.537 242.493 415.737 243.204 415.735C243.918 415.737 244.616 415.524 245.208 415.124C245.763 414.753 246.237 414.225 246.608 413.564C247.196 412.519 247.54 411.098 247.547 409.403L248.153 398.613C248.648 389.795 249.142 380.98 249.636 372.14V372.063C249.627 370.787 249.849 369.777 250.235 369.088C250.402 368.79 250.593 368.57 250.797 368.433C250.957 368.323 251.147 368.264 251.341 368.263C251.609 368.261 251.926 368.355 252.282 368.556C253.312 369.136 254.273 370.377 254.994 371.917C255.749 373.533 256.217 375.436 256.219 377.251V377.317C256.591 384.317 256.97 391.31 257.349 398.296C257.687 404.519 258.024 410.737 258.356 416.949C258.37 419.12 258.935 421.397 259.839 423.325C260.787 425.348 262.129 427.032 263.638 427.89C264.392 428.319 265.139 428.519 265.854 428.513C266.564 428.511 267.258 428.296 267.846 427.898C268.395 427.53 268.867 427.008 269.239 426.351C269.839 425.293 270.188 423.856 270.184 422.149ZM78.8621 245.481C98.8218 256.711 118.804 267.965 138.788 279.192C158.816 290.443 178.823 301.707 198.828 312.95L198.879 366.826C178.864 355.569 158.827 344.312 138.789 333.049C118.798 321.81 98.8067 310.572 78.8607 299.343C78.8607 281.373 78.8607 263.427 78.8621 245.481Z" fill="white"/>
<path fill-rule="evenodd" clip-rule="evenodd" d="M79.2022 246.563C84.8597 249.744 90.5172 252.927 96.1755 256.11C110.289 264.05 124.41 271.995 138.533 279.925C149.542 286.109 160.55 292.295 171.556 298.484C180.534 303.533 189.511 308.579 198.486 313.622L198.536 366.441C185.976 359.379 173.409 352.318 160.837 345.256C153.573 341.175 146.309 337.094 139.044 333.012L138.405 332.653C118.656 321.555 98.9065 310.457 79.2022 299.368V246.563ZM96.6848 255.202L78.9386 245.219L78.1629 244.784V299.979L78.4279 300.128C98.2203 311.266 118.058 322.414 137.895 333.561L138.534 333.92C145.798 338.002 153.063 342.084 160.327 346.165C173.157 353.372 185.985 360.578 198.801 367.785L199.577 368.221C199.559 349.817 199.541 331.414 199.526 313.01L199.261 312.862C190.196 307.769 181.132 302.674 172.066 297.576C161.062 291.39 150.055 285.201 139.043 279.017C124.92 271.084 110.801 263.146 96.6848 255.202Z" fill="black"/>
<path fill-rule="evenodd" clip-rule="evenodd" d="M102.433 280.35L138.744 300.706L175.146 321.145L175.155 332.497L170.422 334.747L138.727 312.053L97.7008 282.599L102.433 280.35Z" fill="#0BDA8F"/>
<path fill-rule="evenodd" clip-rule="evenodd" d="M102.722 280.825L138.735 301.127L174.809 321.495L174.816 332.255L170.662 334.24L139.273 311.641L99.0312 282.59L102.722 280.825ZM139.242 300.219L102.761 279.653L97.0029 282.405L138.668 312.484L170.558 335.444L175.852 332.914L175.843 320.883L139.242 300.219Z" fill="white"/>
<path fill-rule="evenodd" clip-rule="evenodd" d="M97.7006 282.443C109.787 289.25 121.878 296.045 133.936 302.859C146.027 309.693 158.153 316.529 170.262 323.36L170.27 334.747C158.16 327.891 146.022 321.072 133.918 314.241C121.872 307.443 109.767 300.628 97.7027 293.797L97.7006 282.442" fill="#15181A"/>
<path fill-rule="evenodd" clip-rule="evenodd" d="M98.0428 283.531L107.529 288.877C116.25 293.788 124.968 298.706 133.681 303.631C143.352 309.101 153.026 314.566 162.702 320.027L169.919 324.101L169.927 334.354C161.779 329.738 154.66 325.724 147.544 321.711C143.084 319.196 138.626 316.682 134.172 314.166C130.691 312.2 127.206 310.233 123.717 308.264C114.737 303.194 105.741 298.117 98.0448 293.755L98.0428 283.531ZM108.039 287.965L97.7778 282.182L97.0028 281.745L97.0049 294.363L97.2698 294.513C105.911 299.409 114.557 304.296 123.208 309.176L133.663 315.078C138.116 317.594 142.575 320.109 147.035 322.624C155.134 327.192 163.239 331.762 170.192 335.701L170.968 336.142L170.958 323.487L163.212 319.114C153.534 313.65 143.85 308.183 134.19 302.718C125.485 297.794 116.763 292.88 108.039 287.965ZM116.603 27.4298C117.721 28.0565 118.635 29.8519 118.634 31.4209C118.634 32.9907 117.719 33.7597 116.599 33.1324C115.479 32.5043 114.576 30.72 114.578 29.1482C114.58 27.5764 115.484 26.8025 116.603 27.4298ZM67.6517 57.2294C68.7749 57.8609 69.6821 59.6639 69.669 61.248C69.6566 62.8329 68.7288 63.5965 67.6042 62.9643C66.4803 62.3321 65.5897 60.5498 65.6027 58.9622C65.6165 57.3753 66.5278 56.598 67.6517 57.2294ZM67.7453 45.7467C68.8672 46.3775 69.7722 48.1728 69.7598 49.757C69.7468 51.3419 68.8211 52.1192 67.6985 51.4884C66.5766 50.8576 65.6874 49.0657 65.7005 47.4815C65.7142 45.898 66.6241 45.1166 67.7453 45.7467ZM67.8396 34.3024C68.9587 34.9319 69.8617 36.7238 69.8493 38.3045C69.8376 39.8866 68.9133 40.6543 67.7928 40.0242C66.6723 39.3948 65.7844 37.6043 65.7982 36.027C65.812 34.449 66.7205 33.673 67.8396 34.3024ZM67.9325 22.9015C69.0502 23.5296 69.9519 25.3077 69.9395 26.883C69.9271 28.4582 69.0041 29.2218 67.8864 28.5924C66.768 27.9643 65.8815 26.1841 65.8945 24.6095C65.9083 23.0343 66.8154 22.2735 67.9325 22.9015ZM68.0254 11.5385C69.1411 12.1658 70.0414 13.9392 70.029 15.5055C70.0166 17.0711 69.0957 17.8381 67.9793 17.2114C66.8629 16.5834 65.9785 14.8004 65.9916 13.2355C66.0054 11.6705 66.9104 10.9118 68.0254 11.5385ZM68.1183 0.220117C69.232 0.846087 70.1308 2.62494 70.1184 4.18505C70.1061 5.74447 69.1865 6.49976 68.0722 5.87311C66.9572 5.24714 66.0749 3.47172 66.088 1.91299C66.101 0.354253 67.0047 -0.405853 68.1183 0.220117ZM75.8063 61.8004C76.933 62.4333 77.838 64.2307 77.8277 65.8197C77.8174 67.4087 76.8937 68.1784 75.7671 67.5462C74.6397 66.9134 73.7346 65.1153 73.7456 63.5304C73.7573 61.9449 74.681 61.1682 75.807 61.8004H75.8063ZM75.8861 50.3163C77.01 50.9471 77.9089 52.741 77.8986 54.3266C77.8876 55.9128 76.9715 56.6867 75.8462 56.0552C74.7216 55.4238 73.8172 53.627 73.8289 52.0415C73.8406 50.4566 74.7622 49.6848 75.8868 50.3163H75.8861ZM75.966 38.8631C77.0878 39.4932 77.9846 41.2837 77.9743 42.8665C77.964 44.4487 77.0493 45.2143 75.926 44.5835C74.8028 43.9527 73.9005 42.167 73.9122 40.5848C73.9232 39.0027 74.8434 38.2337 75.966 38.8638V38.8631ZM76.0451 27.4546C77.1649 28.0833 78.0603 29.8629 78.05 31.4367C78.039 33.0092 77.1264 33.779 76.0052 33.1496C74.884 32.5202 73.9831 30.7317 73.9955 29.1599C74.0058 27.5867 74.9246 26.8259 76.0451 27.4546ZM76.1229 16.0902C77.2413 16.721 78.1354 18.4902 78.1257 20.0572C78.1147 21.6235 77.2035 22.3946 76.0836 21.7659C74.9652 21.1378 74.0656 19.3438 74.0767 17.7775C74.0884 16.2112 75.0051 15.4594 76.1229 16.0902ZM76.2013 4.75668C77.3177 5.38265 78.2104 7.16081 78.1994 8.72161C78.1897 10.2824 77.2798 11.0466 76.1621 10.42C75.045 9.79264 74.1476 8.01241 74.1593 6.4523C74.1703 4.89219 75.0857 4.12933 76.2013 4.75668ZM83.9567 66.3734C85.08 67.0035 85.9899 68.8071 85.9816 70.3968C85.9726 71.9872 85.0483 72.7535 83.9237 72.1227C82.7997 71.4912 81.8898 69.6952 81.8995 68.1055C81.9084 66.5165 82.8328 65.7426 83.9567 66.3734ZM84.0214 54.8742C85.1433 55.5042 86.0518 57.3031 86.0429 58.89C86.0346 60.4769 85.1116 61.2473 83.9891 60.6179C82.8672 59.9878 81.9587 58.1897 81.9683 56.6035C81.9773 55.0165 82.9002 54.2447 84.0214 54.8742ZM84.0868 43.4203C85.2059 44.0483 86.1124 45.8464 86.1034 47.4272C86.0958 49.0079 85.1743 49.7728 84.0545 49.1441C82.934 48.5154 82.0275 46.7276 82.0365 45.1441C82.0461 43.5613 82.967 42.7916 84.0868 43.4203ZM84.1508 32.0029C85.2686 32.6302 86.1736 34.4153 86.1654 35.9898C86.1564 37.5637 85.2376 38.3362 84.1191 37.7088C83.0007 37.0808 82.0956 35.284 82.1046 33.7109C82.1142 32.137 83.0338 31.3762 84.1508 32.0029ZM84.2155 20.6302C85.3305 21.2561 86.2342 23.0343 86.2259 24.602C86.2177 26.1703 85.3002 26.9373 84.1838 26.3107C83.0668 25.684 82.1638 23.8948 82.1727 22.3272C82.1824 20.7595 83.1005 20.0042 84.2155 20.6302ZM84.2802 9.28911C85.3931 9.9137 86.2954 11.6967 86.2872 13.2582C86.2782 14.8203 85.3622 15.5915 84.2479 14.9627C83.1329 14.334 82.2312 12.5483 82.2409 10.9875C82.2498 9.426 83.1659 8.66383 84.2802 9.28842V9.28911ZM92.1223 70.9457C93.2483 71.5779 94.141 73.3788 94.1348 74.9726C94.1279 76.5671 93.2242 77.3382 92.0975 76.706C90.9702 76.0732 90.0506 74.2758 90.0582 72.6847C90.0651 71.0943 90.9963 70.3143 92.123 70.9457H92.1223ZM92.1732 59.4396C93.2972 60.0704 94.1885 61.8637 94.1816 63.4513C94.1747 65.0396 93.2731 65.8245 92.1478 65.193C91.0225 64.5615 90.105 62.7579 90.1126 61.1737C90.1195 59.5896 91.0486 58.8088 92.1732 59.4396ZM92.2235 47.983C93.3454 48.6131 94.2353 50.3988 94.2284 51.9802C94.2222 53.5624 93.3213 54.3417 92.198 53.7109C91.0755 53.0809 90.1587 51.2827 90.1663 49.7006C90.1731 48.1199 91.1016 47.3536 92.2235 47.983ZM92.2737 36.5642C93.3935 37.1929 94.2821 38.9663 94.2759 40.5408C94.269 42.1161 93.3695 42.8968 92.249 42.2674C91.1271 41.638 90.2131 39.8399 90.2206 38.2653C90.2275 36.6901 91.1539 35.9355 92.2737 36.5642ZM92.324 25.1839C93.4417 25.8113 94.3282 27.5826 94.322 29.1523C94.3151 30.7207 93.4176 31.4959 92.2985 30.8679C91.1794 30.2398 90.2667 28.4486 90.2743 26.8802C90.2812 25.3119 91.2056 24.5559 92.324 25.1839ZM92.3735 13.8277C93.4899 14.4537 94.375 16.2346 94.3688 17.8002C94.3619 19.3665 93.4658 20.1321 92.3487 19.5062C91.2317 18.8788 90.3204 17.0952 90.3273 15.533C90.3349 13.9708 91.2572 13.2011 92.3735 13.8277ZM100.261 75.5174C101.385 76.1447 102.298 77.9497 102.294 79.5449C102.289 81.1408 101.368 81.9119 100.244 81.2811C99.1192 80.6503 98.2066 78.8488 98.2114 77.2543C98.2169 75.6598 99.1385 74.8907 100.262 75.5174H100.261ZM100.298 64.0023C101.419 64.6317 102.331 66.4333 102.327 68.0223C102.322 69.6113 101.402 70.3838 100.28 69.7537C99.1578 69.1242 98.2458 67.3234 98.2513 65.7358C98.2568 64.1468 99.1764 63.3736 100.298 64.0023ZM100.334 52.5381C101.453 53.1661 102.363 54.9601 102.359 56.5429C102.354 58.1258 101.437 58.8927 100.316 58.264C99.1956 57.6353 98.2857 55.8427 98.2912 54.2606C98.2961 52.6784 99.2142 51.9101 100.334 52.5381ZM100.37 41.1124C101.488 41.7384 102.395 43.5283 102.391 45.1021C102.387 46.6753 101.47 47.4457 100.352 46.8184C99.2335 46.1911 98.325 44.3991 98.3305 42.8232C98.336 41.2473 99.2528 40.4844 100.37 41.1118V41.1124ZM100.406 29.7225C101.521 30.3485 102.428 32.1343 102.423 33.7047C102.419 35.2751 101.504 36.0373 100.388 35.4106C99.2713 34.7846 98.3642 32.9934 98.3697 31.4237C98.3752 29.8539 99.2899 29.0966 100.406 29.7225ZM100.441 18.3588C101.554 18.9841 102.459 20.7719 102.455 22.3389C102.451 23.9058 101.538 24.6721 100.423 24.0476C99.3085 23.4216 98.4041 21.6345 98.4089 20.0682C98.4144 18.5019 99.3278 17.7342 100.441 18.3588ZM108.412 80.0856C109.538 80.7171 110.449 82.5241 110.447 84.1207C110.445 85.7166 109.527 86.4918 108.401 85.8596C107.273 85.2268 106.372 83.4301 106.376 81.8342C106.379 80.2383 107.286 79.4541 108.412 80.0856ZM108.433 68.5622C109.557 69.193 110.468 70.9932 110.465 72.5829C110.463 74.1733 109.547 74.952 108.423 74.3239C107.297 73.6959 106.395 71.8964 106.396 70.3067C106.397 68.7177 107.309 67.9322 108.433 68.5622ZM108.455 57.096C109.577 57.7261 110.485 59.5187 110.483 61.1022C110.481 62.6864 109.567 63.4561 108.444 62.8267C107.321 62.1966 106.418 60.4074 106.42 58.8233C106.424 57.2411 107.333 56.4673 108.455 57.0967V57.096ZM108.476 45.6621C109.596 46.2901 110.504 48.0786 110.501 49.6531C110.499 51.2277 109.586 52.0016 108.465 51.3728C107.345 50.7434 106.442 48.9522 106.446 47.3783C106.45 45.8045 107.356 45.0334 108.476 45.6621ZM108.498 34.2708C109.616 34.8982 110.522 36.6825 110.519 38.2536C110.517 39.8254 109.606 40.591 108.487 39.963C107.368 39.3357 106.468 37.5451 106.471 35.9774C106.475 34.4098 107.38 33.6435 108.498 34.2715V34.2708ZM108.519 22.8933C109.635 23.5193 110.54 25.3029 110.537 26.874C110.535 28.4452 109.626 29.2121 108.509 28.5848C107.391 27.9588 106.492 26.1752 106.496 24.6075C106.499 23.0398 107.403 22.2666 108.52 22.8926L108.519 22.8933ZM116.567 84.6565C117.696 85.2887 118.617 87.0985 118.616 88.6951C118.616 90.293 117.693 91.0738 116.563 90.4409C115.433 89.8081 114.522 88.0058 114.524 86.4086C114.525 84.812 115.438 84.0237 116.567 84.6565ZM116.574 73.1318C117.7 73.7599 118.621 75.5649 118.62 77.1559C118.62 78.7477 117.698 79.5222 116.57 78.8907C115.443 78.2586 114.533 76.4584 114.535 74.8667C114.536 73.2763 115.448 72.5031 116.574 73.1318ZM116.581 61.6573C117.706 62.2874 118.624 64.0855 118.624 65.6677C118.623 67.2491 117.703 68.0223 116.578 67.3915C115.452 66.7607 114.544 64.9633 114.545 63.3825C114.547 61.8011 115.457 61.0272 116.581 61.6573ZM116.588 50.2207C117.711 50.8501 118.627 52.6317 118.627 54.2103C118.627 55.7883 117.709 56.5588 116.585 55.93C115.461 55.2999 114.555 53.5039 114.556 51.9286C114.558 50.3541 115.466 49.5919 116.588 50.2207ZM116.595 38.8225C117.716 39.4505 118.632 41.2335 118.631 42.8033C118.63 44.3723 117.713 45.1407 116.592 44.5119C115.47 43.8832 114.565 42.0975 114.567 40.5264C114.569 38.9539 115.474 38.1945 116.596 38.8218L116.595 38.8225Z" fill="white"/>
<path fill-rule="evenodd" clip-rule="evenodd" d="M303.418 248.271C296.962 242.956 290.479 237.614 284.023 232.271C288.092 209.756 273 164.31 250.587 154.396C250.544 144.087 250.529 133.777 250.515 123.438C295.499 144.574 310.051 202.593 303.418 248.271Z" fill="#0BDA8F"/>
<path fill-rule="evenodd" clip-rule="evenodd" d="M303.197 247.687C300.186 245.219 297.17 242.746 294.155 240.268C290.977 237.659 287.799 235.046 284.628 232.433C286.725 220.276 283.395 201.72 276.415 185.53C270.323 171.398 261.437 159.042 250.931 154.251C250.911 149.195 250.897 144.141 250.885 139.085C250.876 134.189 250.868 129.29 250.861 124.384C271.171 134.143 285.202 151.455 293.819 171.704C303.934 195.473 306.591 223.283 303.197 247.687V247.687ZM293.492 241.073C296.748 243.746 300.004 246.417 303.253 249.08L303.967 249.665L304.101 248.751C307.716 223.958 305.099 195.545 294.779 171.296C285.963 150.581 271.529 132.9 250.56 123.088L249.816 122.74L249.818 123.559C249.825 128.741 249.833 133.914 249.844 139.084C249.855 144.257 249.869 149.425 249.891 154.59L249.893 154.93L250.202 155.066C260.577 159.637 269.396 171.889 275.455 185.942C282.42 202.097 285.721 220.591 283.551 232.55L283.497 232.85L283.733 233.044C286.981 235.722 290.237 238.399 293.492 241.073Z" fill="white"/>
<path fill-rule="evenodd" clip-rule="evenodd" d="M307.733 249.039C302.787 281.651 275.759 292.898 258.763 283.34C241.767 273.782 239.473 267.937 231.674 255.694C234.906 248.549 238.194 241.388 241.482 234.227C246.383 242.268 248.427 246.489 258.719 252.281C269.009 258.073 284.806 251.731 288.159 232.928C294.677 238.307 301.201 243.677 307.733 249.038" fill="#15181A"/>
<path fill-rule="evenodd" clip-rule="evenodd" d="M307.314 248.797C306.234 255.731 304.148 261.676 301.374 266.641C297.381 273.785 291.961 278.898 286.064 281.997C280.182 285.088 273.823 286.176 267.934 285.278C264.941 284.821 262.07 283.85 259.445 282.368C244.508 273.934 241.082 268.416 235.071 258.735C234.402 257.658 233.7 256.527 232.851 255.187C235.96 248.288 239.018 241.597 242.076 234.909L242.544 235.686C246.805 242.763 249.252 246.828 258.893 252.276C260.506 253.185 262.26 253.815 264.083 254.139C267.877 254.82 271.959 254.212 275.722 252.306C279.471 250.408 282.902 247.221 285.412 242.735C286.889 240.096 288.046 237.006 288.761 233.465C291.776 235.965 294.794 238.462 297.814 240.956C300.98 243.572 304.146 246.185 307.314 248.797ZM302.28 267.151C305.152 262.011 307.301 255.85 308.387 248.662L308.431 248.371L308.201 248.183C304.964 245.511 301.718 242.834 298.473 240.152C295.227 237.471 291.982 234.786 288.743 232.101L288.059 231.533L287.902 232.414C287.23 236.2 286.048 239.468 284.506 242.225C282.103 246.519 278.828 249.567 275.255 251.376C271.697 253.178 267.842 253.752 264.262 253.11C262.555 252.806 260.912 252.217 259.401 251.365C250 246.053 247.604 242.074 243.434 235.147C243.17 234.708 242.897 234.254 242.456 233.528L241.949 232.692L241.35 234.003C238.108 241.092 234.867 248.18 231.79 255.013L231.675 255.268L231.826 255.508C232.62 256.764 233.408 258.023 234.189 259.287C240.291 269.113 243.768 274.713 258.937 283.279C261.673 284.824 264.664 285.836 267.78 286.311C273.879 287.242 280.46 286.117 286.543 282.92C292.612 279.731 298.183 274.479 302.28 267.151Z" fill="white"/>
<path fill-rule="evenodd" clip-rule="evenodd" d="M36.2957 415.316L74.246 433.776C86.5825 412.588 86.0174 414.821 90.8814 409.342C92.5043 407.514 95.3152 403.754 98.8068 399.04C100.857 396.273 102.731 392.94 105.041 388.843C107.388 384.68 113.365 378.996 115.272 371.142L115.52 371.008C121.523 371.664 125.387 370.62 127.11 367.877C124.072 366.613 120.744 363.883 117.65 362.855L117.617 361.411L117.687 361.118C126.224 361.782 133.617 360.462 138.173 355.639C138.173 355.639 132.061 353.177 125.72 351.382C129.501 350.543 132.314 348.727 134.211 345.924C120.521 340.982 108.854 333.177 95.6848 342.447C96.5106 341.436 97.3475 340.433 98.1956 339.44C120.448 326.174 134.572 320.087 133.356 308.247C121.869 314.848 106.215 319.87 88.1366 329.411C76.4016 339.868 68.3228 349.511 63.902 358.339C52.6833 380.252 54.4625 400.268 36.2971 415.317" fill="#15181A"/>
<path fill-rule="evenodd" clip-rule="evenodd" d="M87.4959 375.195C90.0989 368.671 92.6139 363.671 95.2293 359.968C97.8103 356.312 100.483 353.937 103.429 352.62C105.037 351.901 106.291 351.468 107.938 351.329C109.617 351.188 111.718 351.346 115.01 351.81C119.869 352.496 123.959 352.369 127.278 351.43C130.648 350.478 133.224 348.692 135.008 346.073L135.381 345.525L134.755 345.3C132.448 344.472 130.141 343.538 127.876 342.621C116.941 338.192 106.983 334.16 95.8928 341.919L96.4881 342.763C107.115 335.327 116.825 339.26 127.488 343.578C129.526 344.403 131.598 345.242 133.765 346.035C132.144 348.153 129.889 349.62 126.999 350.438C123.818 351.337 119.869 351.454 115.151 350.789C111.777 350.313 109.609 350.152 107.853 350.3C106.067 350.45 104.723 350.912 103.008 351.679C99.8861 353.075 97.0752 355.562 94.3827 359.374C91.7239 363.139 89.1718 368.21 86.5365 374.816L87.4952 375.195H87.4959Z" fill="white"/>
<path fill-rule="evenodd" clip-rule="evenodd" d="M125.445 351.816C130.431 353.272 135.257 355.152 137.05 355.871C135.047 357.821 132.499 359.125 129.576 359.911C125.96 360.883 121.768 361.065 117.32 360.702L117.239 361.769C121.79 362.141 126.095 361.949 129.834 360.944C133.215 360.036 136.13 358.463 138.346 356.041L138.869 355.47L138.165 355.177C138.147 355.17 132.056 352.636 125.724 350.786L125.445 351.816V351.816ZM113.052 371.078C116.09 371.806 119.141 371.879 121.668 371.422C124.308 370.946 126.402 369.882 127.371 368.368L127.706 367.845L127.126 367.608C125.747 367.044 124.132 366.044 122.491 365.028C120.486 363.787 118.447 362.524 116.675 361.945L116.343 362.938C118.002 363.479 119.981 364.706 121.928 365.911C123.373 366.806 124.801 367.69 126.097 368.298C125.168 369.303 123.516 370.029 121.478 370.397C119.087 370.828 116.192 370.757 113.301 370.065L113.052 371.078ZM42.0682 432.435C55.6449 442.254 70.9919 440.6 74.4346 433.84C76.9468 428.906 74.5516 420.698 65.4975 416.361C55.3345 411.493 41.3455 410.451 36.1918 415.373C32.6252 418.778 33.438 426.193 42.0682 432.435Z" fill="white"/>
<path fill-rule="evenodd" clip-rule="evenodd" d="M41.5202 432.421C43.2032 433.636 44.9794 434.716 46.8323 435.651C52.558 438.534 58.2926 439.604 63.0726 439.307C67.9263 439.006 71.8205 437.291 73.7724 434.623C74.0389 434.258 74.2713 433.871 74.4668 433.464C75.6933 430.932 75.7078 427.625 74.2975 424.398C72.9045 421.209 70.1198 418.091 65.7403 415.886C65.6144 415.823 65.4623 415.748 65.2847 415.664C60.0332 413.158 53.7631 411.666 48.2081 411.479C42.905 411.301 38.2255 412.317 35.6376 414.779C35.3522 415.05 35.0919 415.346 34.8599 415.663C33.6761 417.282 33.2156 419.453 33.6871 421.868C34.1482 424.229 35.5034 426.827 37.9495 429.36C38.953 430.398 40.1382 431.427 41.5202 432.421ZM47.2989 434.733C45.4959 433.822 43.7675 432.77 42.13 431.588C40.7948 430.627 39.6557 429.64 38.697 428.647C36.3995 426.268 35.1317 423.852 34.7064 421.675C34.2914 419.55 34.6823 417.659 35.7003 416.268C35.896 416 36.1153 415.749 36.3555 415.52C38.7272 413.264 43.1349 412.337 48.1751 412.506C53.5945 412.689 59.7125 414.145 64.838 416.59C64.9612 416.649 65.1064 416.72 65.2737 416.804C69.417 418.891 72.0435 421.819 73.347 424.804C74.6355 427.752 74.6341 430.748 73.5329 433.021L73.4627 433.161C73.3119 433.455 73.1344 433.741 72.932 434.018C71.1618 436.438 67.5511 437.998 63.012 438.28C58.3979 438.566 52.8505 437.527 47.2989 434.733Z" fill="white"/>
<path fill-rule="evenodd" clip-rule="evenodd" d="M79.5588 218.98C87.2412 223.329 94.9229 227.675 102.583 232.02C102.583 238.134 102.584 244.249 102.585 250.362C94.9023 246.016 87.2419 241.671 79.5588 237.322V218.98ZM152.134 225.256C159.802 229.555 167.47 233.855 175.115 238.155L175.155 290.811C167.483 286.482 159.812 282.178 152.141 277.873C152.131 260.334 152.121 242.795 152.134 225.257" fill="#4630EB"/>
<path fill-rule="evenodd" clip-rule="evenodd" d="M209.839 220.149C202.888 216.267 195.936 212.385 188.494 208.255L187.715 207.821C187.741 238.391 187.765 268.96 187.794 299.53L188.06 299.679L194.951 303.53C200.413 306.583 205.878 309.638 211.353 312.691L212.137 313.127L212.135 312.236C212.115 304.7 212.101 297.153 212.091 289.603C212.08 282.053 212.072 274.501 212.063 266.953L212.016 221.365L209.839 220.149V220.149ZM127.586 154.002C123.711 151.863 119.837 149.722 115.969 147.582L115.185 147.149L115.185 148.036C115.174 159.009 115.176 169.975 115.177 180.933C115.178 188.208 115.179 195.48 115.177 202.748C115.174 211.867 115.17 220.991 115.166 230.116C115.161 239.241 115.155 248.365 115.146 257.484V257.789L117.132 258.886C124.35 262.869 131.565 266.857 138.778 270.85L139.562 271.284V270.396C139.571 259.45 139.567 248.494 139.564 237.54C139.561 230.242 139.559 222.944 139.56 215.649V214.83C139.563 196.883 139.566 178.892 139.558 160.924V160.62L139.289 160.471C135.392 158.315 131.489 156.158 127.586 154.003" fill="#0BDA8F"/>
<path fill-rule="evenodd" clip-rule="evenodd" d="M115.881 149.241C119.49 151.238 123.105 153.235 126.72 155.231C130.536 157.338 134.352 159.446 138.162 161.554C138.17 179.43 138.167 197.328 138.165 215.182V216.002C138.163 223.3 138.166 230.602 138.168 237.904C138.172 248.568 138.175 259.233 138.167 269.889C131.222 266.043 124.258 262.199 117.293 258.353L115.843 257.553C115.852 248.531 115.858 239.504 115.863 230.477C115.867 221.347 115.87 212.218 115.874 203.095C115.876 195.823 115.875 188.548 115.874 181.268C115.872 170.601 115.871 159.925 115.881 149.241V149.241ZM189.11 209.216C195.971 213.005 202.828 216.803 209.68 220.608L211.324 221.52L211.371 266.22C211.378 273.721 211.386 281.228 211.397 288.731C211.407 295.933 211.421 303.136 211.439 310.338C206.223 307.447 201.017 304.556 195.814 301.666L189.187 297.987L189.11 209.216Z" fill="#0BDA8F"/>
<path fill-rule="evenodd" clip-rule="evenodd" d="M17.4557 200.151C26.7047 200.151 34.2026 207.644 34.2026 216.888C34.2026 226.131 26.7047 233.625 17.4557 233.625C8.20682 233.625 0.708862 226.131 0.708862 216.888C0.708862 207.644 8.20682 200.151 17.4557 200.151Z" fill="#15181A"/>
<path fill-rule="evenodd" clip-rule="evenodd" d="M17.4558 200.496C19.6101 200.493 21.7437 200.916 23.7339 201.74C25.7242 202.564 27.5319 203.773 29.0531 205.297C30.5784 206.818 31.7881 208.624 32.6126 210.614C33.437 212.603 33.86 214.735 33.8572 216.888C33.8572 221.414 32.0216 225.513 29.0531 228.479C27.5319 230.003 25.7241 231.212 23.7339 232.036C21.7436 232.86 19.6101 233.283 17.4558 233.28C12.927 233.28 8.82633 231.445 5.85853 228.479C4.33318 226.959 3.12352 225.152 2.29906 223.163C1.47461 221.174 1.05161 219.041 1.05439 216.888C1.05141 214.735 1.47431 212.603 2.29877 210.614C3.12323 208.624 4.33303 206.818 5.85853 205.297C7.37977 203.773 9.18746 202.564 11.1777 201.74C13.168 200.916 15.3015 200.493 17.4558 200.496ZM29.7909 204.56C28.1729 202.939 26.2502 201.653 24.1333 200.776C22.0164 199.9 19.7471 199.45 17.4558 199.453C15.1645 199.45 12.8952 199.9 10.7783 200.776C8.66143 201.653 6.73873 202.939 5.12069 204.56C3.49846 206.177 2.212 208.099 1.33522 210.215C0.458447 212.33 0.00866699 214.598 0.0117035 216.888C0.00875854 219.178 0.458576 221.446 1.33535 223.561C2.21212 225.677 3.49854 227.599 5.12069 229.216C6.73873 230.837 8.66143 232.123 10.7783 232.999C12.8952 233.876 15.1645 234.325 17.4558 234.322C22.2737 234.322 26.6345 232.371 29.7909 229.216C31.4132 227.599 32.6998 225.677 33.5767 223.562C34.4536 221.446 34.9035 219.178 34.9006 216.888C34.9006 212.073 32.948 207.715 29.7909 204.56Z" fill="white"/>
<path fill-rule="evenodd" clip-rule="evenodd" d="M27.7309 202.989C31.6726 206.067 34.2026 210.828 34.2026 216.171C34.2026 225.452 26.5732 232.976 17.1612 232.976C13.5022 232.984 9.93702 231.82 6.98859 229.655C25.8705 233.505 32.8743 214.377 27.7309 202.989Z" fill="white"/>
<path fill-rule="evenodd" clip-rule="evenodd" d="M29.2479 205.608C30.4731 206.835 31.4902 208.252 32.2591 209.806C33.3217 211.956 33.8729 214.323 33.8696 216.722C33.8696 221.11 32.0546 225.083 29.1206 227.958C26.1865 230.834 22.1333 232.613 17.6554 232.613C15.8728 232.613 14.1583 232.331 12.5554 231.811C11.6851 231.529 10.8402 231.174 10.0294 230.75C13.6986 231.131 16.8742 230.604 19.5516 229.436C22.337 228.22 24.576 226.31 26.2663 224.002C27.9492 221.703 29.0862 219.011 29.676 216.217C30.429 212.648 30.2872 208.907 29.2472 205.608H29.2479ZM33.1848 209.368C32.0403 207.06 30.3872 205.042 28.3497 203.465L26.7116 202.194L27.5623 204.065C29.1674 207.597 29.5328 211.92 28.6691 216.016C28.1074 218.675 27.0282 221.234 25.4321 223.413C23.8443 225.583 21.743 227.376 19.1324 228.516C16.0607 229.857 12.2739 230.296 7.77125 229.384L5.50409 228.924L7.36242 230.282C8.8436 231.364 10.4875 232.204 12.2326 232.771C13.9844 233.338 15.8147 233.626 17.6561 233.624C22.4176 233.624 26.7288 231.732 29.8494 228.673C32.9707 225.615 34.9006 221.389 34.9006 216.722C34.9006 214.087 34.2839 211.592 33.1855 209.368H33.1848ZM85.1406 417.54C84.6678 415.125 83.8384 413.004 82.6519 411.177C81.4612 409.342 79.9153 407.81 78.015 406.578L77.4651 407.439C79.2442 408.592 80.6889 410.024 81.7984 411.733C82.912 413.448 83.6925 415.449 84.1406 417.736L85.1406 417.54Z" fill="white"/>
<path fill-rule="evenodd" clip-rule="evenodd" d="M124.914 208.331L71.1715 178.389V181.351L124.914 211.308V208.331ZM124.914 190.145L49.1201 147.895L48.8558 148.362V150.725L124.914 193.123V190.145ZM124.914 171.415L48.8558 129.017V131.994L124.914 174.392V171.415ZM60.0911 172.197L49.063 166.049L48.8565 166.416V168.911L60.0911 175.158V172.197Z" fill="#4630EB"/>
<path fill-rule="evenodd" clip-rule="evenodd" d="M17.1068 267.797C24.622 267.797 30.7139 269.359 30.7139 271.284C30.7139 273.21 24.622 274.771 17.1068 274.771C9.59233 274.771 3.49982 273.21 3.49982 271.284C3.49982 269.358 9.59233 267.797 17.1068 267.797Z" fill="white"/>
<path fill-rule="evenodd" clip-rule="evenodd" d="M294.287 78.1072L311.826 86.7229L329.364 95.3372L311.571 106.25L293.777 117.162L294.032 97.6347L294.287 78.1072ZM178.643 417.038L188.412 407.275L198.181 417.038L188.412 426.802L178.643 417.038Z" fill="#4630EB"/>
<path fill-rule="evenodd" clip-rule="evenodd" d="M21.6426 262.916C21.6426 260.321 19.2213 259.941 16.9108 259.579C15.2404 259.317 13.6415 259.066 13.6058 257.912C13.5686 256.671 15.2315 256.344 16.9624 256.003C19.2544 255.552 21.6426 255.083 21.6426 252.595C21.6426 250.002 19.1965 249.612 16.8771 249.243C15.1984 248.974 13.603 248.72 13.6051 247.575C13.6078 246.321 15.2741 245.999 16.9975 245.665C19.2798 245.223 21.6433 244.766 21.6433 242.273C21.6433 239.664 19.7272 239.587 17.7271 239.508C16.0642 239.442 14.3236 239.374 14.3236 237.112H13.2871C13.2871 240.363 15.537 240.451 17.6865 240.537C19.178 240.596 20.6061 240.653 20.6061 242.273C20.6061 243.916 18.6721 244.291 16.8034 244.653C14.6547 245.068 12.5775 245.47 12.5727 247.575C12.5679 249.598 14.5893 249.92 16.7146 250.259C18.6087 250.561 20.6061 250.879 20.6061 252.595C20.6061 254.235 18.6459 254.62 16.7642 254.99C14.5927 255.417 12.5066 255.828 12.5727 257.942V257.944C12.636 259.949 14.6492 260.265 16.7525 260.595C18.6342 260.89 20.6068 261.199 20.6068 262.916H21.6426ZM74.4856 433.776C82.2961 420.459 87.7306 413.716 92.5127 407.781C100.444 397.94 106.593 390.311 118.682 359.001C119.685 356.4 119.798 354.529 119.314 353.287C118.964 352.39 118.321 351.814 117.48 351.521C116.692 351.245 115.738 351.232 114.7 351.443C112.062 351.982 108.796 354.013 106.462 356.902C105.54 358.044 104.504 359.395 103.314 360.947C101.49 363.326 99.3052 366.176 96.6506 369.421L96.6299 369.446L96.6134 369.472C93.5368 374.358 89.9806 376.296 87.0135 376.217C85.8591 376.194 84.7361 375.838 83.7786 375.193C82.8426 374.56 82.0752 373.655 81.5521 372.542C80.2024 369.667 80.4866 365.42 83.6637 360.855L83.6878 360.821L83.6946 360.808C85.5992 357.298 87.702 353.899 89.993 350.628C92.3675 347.238 95.1054 343.739 98.4228 339.876C101.63 337.978 104.639 336.245 107.462 334.619C124.634 324.728 134.988 318.763 133.908 308.324L133.829 307.549L133.142 307.921C125.744 311.939 118.566 314.974 111.709 317.874C92.4039 326.037 75.6282 333.131 63.1809 358.082H63.1823C59.032 366.13 56.6506 373.907 54.3924 381.277C50.5271 393.894 47.03 405.31 35.5986 414.712L36.2593 415.513C47.933 405.911 51.4742 394.353 55.3876 381.577C57.6328 374.249 60.0018 366.516 64.1114 358.547L64.1148 358.541C76.3894 333.937 93.0014 326.912 112.117 318.829C118.772 316.014 125.728 313.073 132.928 309.215C133.327 318.52 123.293 324.301 106.939 333.721C104.072 335.373 101.013 337.135 97.8186 339.025L97.7449 339.069L97.6885 339.135C94.3297 343.042 91.5546 346.589 89.1402 350.035C86.8277 353.334 84.7051 356.762 82.7827 360.302C79.3916 365.196 79.1225 369.813 80.6105 372.982C81.2127 374.265 82.1041 375.313 83.195 376.05C84.3175 376.808 85.6346 377.225 86.9887 377.254C90.2841 377.34 94.1817 375.272 97.4778 370.052C100.15 366.785 102.325 363.946 104.142 361.577C105.33 360.027 106.365 358.677 107.274 357.552C109.458 354.848 112.483 352.954 114.908 352.459C115.765 352.285 116.532 352.289 117.138 352.5C117.413 352.591 117.665 352.742 117.873 352.943C118.082 353.144 118.242 353.39 118.343 353.661C118.739 354.676 118.613 356.293 117.711 358.63C105.684 389.782 99.5784 397.358 91.7012 407.131C86.8916 413.099 81.4254 419.881 73.5847 433.251L74.4863 433.776L74.4856 433.776Z" fill="white"/>
</svg>
