<svg viewBox="0 0 81 26" fill="none" xmlns="http://www.w3.org/2000/svg">
<path d="M14 22H10L13 8L8 11L9 8L18 2L14 22Z" fill="white" stroke="white"/>
<path d="M26.272 22H29.296L32.008 8.032H37.24L37.792 5.272H24.304L23.752 8.032H28.984L26.272 22ZM42.9252 9.928C41.6772 9.928 40.2372 10.624 39.4692 12.04L39.8532 10.168H36.9492L34.6452 22H37.5252L38.6532 16.168C39.0852 13.936 40.2612 12.736 42.0852 12.736C42.5892 12.736 43.0212 12.808 43.3812 13.072L45.1572 10.648C44.4612 10.168 43.7892 9.928 42.9252 9.928ZM54.8007 17.152C54.9927 16.504 55.2087 15.328 55.2087 14.512C55.2087 11.896 53.7927 9.928 50.6727 9.928C46.6647 9.928 43.8807 13.384 43.8807 17.488C43.8807 20.104 45.2727 22.24 48.7527 22.24C50.6727 22.24 52.3287 21.616 53.9127 20.176L52.1847 18.256C51.2007 19.192 50.1447 19.624 49.0167 19.624C47.3847 19.624 46.6407 18.88 46.6407 17.584C46.6407 17.44 46.6407 17.296 46.6647 17.152H54.8007ZM50.4567 12.328C51.8007 12.328 52.5927 13.096 52.5927 14.176C52.5927 14.44 52.5447 14.752 52.4247 15.064H47.0967C47.4807 13.816 48.5127 12.328 50.4567 12.328ZM59.2786 22H61.6546L68.7826 10.168H65.6146L61.1266 18.256L59.8546 10.168H56.7586L59.2786 22ZM77.4841 10.168L77.2201 11.464C76.6441 10.576 75.4201 9.928 74.0041 9.928C70.1881 9.928 67.8121 13.744 67.8121 17.704C67.8121 20.392 69.1801 22.24 71.8921 22.24C73.0921 22.24 74.4361 21.856 75.4681 20.632L75.2041 22H78.0841L80.3881 10.168H77.4841ZM72.8281 19.576C71.3401 19.576 70.6681 18.808 70.6681 17.44C70.6681 14.968 72.0361 12.544 74.4841 12.544C76.0921 12.544 76.7641 13.504 76.7641 14.872C76.7641 17.296 75.3001 19.576 72.8281 19.576Z" fill="white"/>
<path d="M8 22H1L2 16.5L10 12L8 22Z" fill="#528FF0" stroke="#528FF0"/>
</svg>
