<svg width="24" height="17" viewBox="0 0 24 17" fill="none" xmlns="http://www.w3.org/2000/svg">
<g clip-path="url(#clip0_1:249)">
<path d="M1.31739 0H22.6783C23.4043 0 23.9956 0.591304 23.9956 1.31739V15.3739C23.9956 16.1 23.4043 16.6913 22.6783 16.6913H1.31739C0.591304 16.6957 0 16.1043 0 15.3783V1.31739C0 0.591304 0.591304 0 1.31739 0Z" fill="#B22234"/>
<path d="M0.00869565 1.18695H23.9957C24 1.23043 24.0043 1.27391 24.0043 1.32173V2.59999H0V1.31739C0 1.27391 0.00434783 1.23043 0.00869565 1.18695ZM24 3.76956V5.17826H0V3.76956H24ZM24 6.35217V7.76086H0V6.35217H24ZM24 8.93478V10.3435H0V8.93478H24ZM24 11.5174V12.9261H0V11.5174H24ZM24 14.1V15.3739C24 15.4174 23.9957 15.4652 23.9913 15.5087H0.00869565C0.00434783 15.4696 0 15.4217 0 15.3783V14.1043H24V14.1Z" fill="white"/>
<path d="M9.04348 0V8.9913H0V1.31739C0 0.591304 0.591304 0 1.31739 0H9.04348Z" fill="#3C3B6E"/>
<path d="M0.534761 1.24347L0.834761 2.17825L0.043457 1.59999H1.02607L0.230414 2.17825L0.534761 1.24347Z" fill="white"/>
<path d="M0.534761 3.05219L0.834761 3.98697L0.043457 3.40871H1.02607L0.230414 3.98697L0.534761 3.05219Z" fill="white"/>
<path d="M0.534761 4.8609L0.834761 5.79568L0.043457 5.21742H1.02607L0.230414 5.79568L0.534761 4.8609Z" fill="white"/>
<path d="M0.534761 6.66956L0.834761 7.60434L0.043457 7.02608H1.02607L0.230414 7.60434L0.534761 6.66956Z" fill="white"/>
<path d="M1.59555 0.339111L1.8999 1.27389L1.10425 0.695633H2.0912L1.2912 1.27389L1.59555 0.339111Z" fill="white"/>
<path d="M1.59555 2.14783L1.8999 3.08261L1.10425 2.50435H2.0912L1.2912 3.08261L1.59555 2.14783Z" fill="white"/>
<path d="M1.59555 3.95654L1.8999 4.89133L1.10425 4.31306H2.0912L1.2912 4.89133L1.59555 3.95654Z" fill="white"/>
<path d="M1.59555 5.76526L1.8999 6.70004L1.10425 6.12178H2.0912L1.2912 6.70004L1.59555 5.76526Z" fill="white"/>
<path d="M1.59555 7.57391L1.8999 8.5087L1.10425 7.93044H2.0912L1.2912 8.5087L1.59555 7.57391Z" fill="white"/>
<path d="M2.66074 1.24347L2.96509 2.17825L2.16943 1.59999H3.15204L2.35639 2.17825L2.66074 1.24347Z" fill="white"/>
<path d="M2.66074 3.05219L2.96509 3.98697L2.16943 3.40871H3.15204L2.35639 3.98697L2.66074 3.05219Z" fill="white"/>
<path d="M2.66074 4.8609L2.96509 5.79568L2.16943 5.21742H3.15204L2.35639 5.79568L2.66074 4.8609Z" fill="white"/>
<path d="M2.66074 6.66956L2.96509 7.60434L2.16943 7.02608H3.15204L2.35639 7.60434L2.66074 6.66956Z" fill="white"/>
<path d="M3.72617 0.339111L4.02617 1.27389L3.23486 0.695633H4.21747L3.42182 1.27389L3.72617 0.339111Z" fill="white"/>
<path d="M3.72617 2.14783L4.02617 3.08261L3.23486 2.50435H4.21747L3.42182 3.08261L3.72617 2.14783Z" fill="white"/>
<path d="M3.72617 3.95654L4.02617 4.89133L3.23486 4.31306H4.21747L3.42182 4.89133L3.72617 3.95654Z" fill="white"/>
<path d="M3.72617 5.76526L4.02617 6.70004L3.23486 6.12178H4.21747L3.42182 6.70004L3.72617 5.76526Z" fill="white"/>
<path d="M3.72617 7.57391L4.02617 8.5087L3.23486 7.93044H4.21747L3.42182 8.5087L3.72617 7.57391Z" fill="white"/>
<path d="M4.78696 1.24347L5.09131 2.17825L4.29565 1.59999H5.27826L4.48261 2.17825L4.78696 1.24347Z" fill="white"/>
<path d="M4.78696 3.05219L5.09131 3.98697L4.29565 3.40871H5.27826L4.48261 3.98697L4.78696 3.05219Z" fill="white"/>
<path d="M4.78696 4.8609L5.09131 5.79568L4.29565 5.21742H5.27826L4.48261 5.79568L4.78696 4.8609Z" fill="white"/>
<path d="M4.78696 6.66956L5.09131 7.60434L4.29565 7.02608H5.27826L4.48261 7.60434L4.78696 6.66956Z" fill="white"/>
<path d="M5.85214 0.339111L6.15649 1.27389L5.36084 0.695633H6.34345L5.5478 1.27389L5.85214 0.339111Z" fill="white"/>
<path d="M5.85214 2.14783L6.15649 3.08261L5.36084 2.50435H6.34345L5.5478 3.08261L5.85214 2.14783Z" fill="white"/>
<path d="M5.85214 3.95654L6.15649 4.89133L5.36084 4.31306H6.34345L5.5478 4.89133L5.85214 3.95654Z" fill="white"/>
<path d="M5.85214 5.76526L6.15649 6.70004L5.36084 6.12178H6.34345L5.5478 6.70004L5.85214 5.76526Z" fill="white"/>
<path d="M5.85214 7.57391L6.15649 8.5087L5.36084 7.93044H6.34345L5.5478 8.5087L5.85214 7.57391Z" fill="white"/>
<path d="M6.91318 1.24347L7.21753 2.17825L6.42188 1.59999H7.40448L6.61318 2.17825L6.91318 1.24347Z" fill="white"/>
<path d="M6.91318 3.05219L7.21753 3.98697L6.42188 3.40871H7.40448L6.61318 3.98697L6.91318 3.05219Z" fill="white"/>
<path d="M6.91318 4.8609L7.21753 5.79568L6.42188 5.21742H7.40448L6.61318 5.79568L6.91318 4.8609Z" fill="white"/>
<path d="M6.91318 6.66956L7.21753 7.60434L6.42188 7.02608H7.40448L6.61318 7.60434L6.91318 6.66956Z" fill="white"/>
<path d="M7.97837 0.339111L8.28271 1.27389L7.48706 0.695633H8.46967L7.67402 1.27389L7.97837 0.339111Z" fill="white"/>
<path d="M7.97837 2.14783L8.28271 3.08261L7.48706 2.50435H8.46967L7.67402 3.08261L7.97837 2.14783Z" fill="white"/>
<path d="M7.97837 3.95654L8.28271 4.89133L7.48706 4.31306H8.46967L7.67402 4.89133L7.97837 3.95654Z" fill="white"/>
<path d="M7.97837 5.76526L8.28271 6.70004L7.48706 6.12178H8.46967L7.67402 6.70004L7.97837 5.76526Z" fill="white"/>
<path d="M7.97837 7.57391L8.28271 8.5087L7.48706 7.93044H8.46967L7.67402 8.5087L7.97837 7.57391Z" fill="white"/>
</g>
<defs>
<clipPath id="clip0_1:249">
<rect width="24" height="16.6957" fill="white"/>
</clipPath>
</defs>
</svg>
